<svg width="1200" height="1200" viewBox="0 0 1200 1200" fill="none" xmlns="http://www.w3.org/2000/svg">
<g clip-path="url(#clip0_1_1122)">
<rect width="1200" height="1200" fill="white"/>
<rect width="1200" height="1200" fill="black"/>
<g opacity="0.7">
<mask id="mask0_1_1122" style="mask-type:alpha" maskUnits="userSpaceOnUse" x="0" y="0" width="1200" height="1200">
<rect width="1200" height="1200" fill="url(#paint0_radial_1_1122)"/>
</mask>
<g mask="url(#mask0_1_1122)">
<path d="M69.1279 37.918V111.408L3.2373 148.182L-62.6523 111.408V37.918L3.2373 1.14453L69.1279 37.918Z" stroke="white" stroke-width="2"/>
<path d="M201.685 37.918V111.408L135.794 148.182L69.9043 111.408V37.918L135.794 1.14453L201.685 37.918Z" stroke="white" stroke-width="2"/>
<path d="M334.242 37.918V111.408L268.352 148.182L202.462 111.408V37.918L268.352 1.14453L334.242 37.918Z" stroke="white" stroke-width="2"/>
<path d="M466.799 37.918V111.408L400.908 148.182L335.019 111.408V37.918L400.908 1.14453L466.799 37.918Z" stroke="white" stroke-width="2"/>
<path d="M599.355 37.918V111.408L533.465 148.182L467.575 111.408V37.918L533.465 1.14453L599.355 37.918Z" stroke="white" stroke-width="2"/>
<path d="M731.912 37.918V111.408L666.021 148.182L600.132 111.408V37.918L666.021 1.14453L731.912 37.918Z" stroke="white" stroke-width="2"/>
<path d="M864.469 37.918V111.408L798.578 148.182L732.688 111.408V37.918L798.578 1.14453L864.469 37.918Z" stroke="white" stroke-width="2"/>
<path d="M997.025 37.918V111.408L931.135 148.182L865.245 111.408V37.918L931.135 1.14453L997.025 37.918Z" stroke="white" stroke-width="2"/>
<path d="M1129.58 37.918V111.408L1063.69 148.182L997.803 111.408V37.918L1063.69 1.14453L1129.58 37.918Z" stroke="white" stroke-width="2"/>
<path d="M1262.14 37.918V111.408L1196.25 148.182L1130.36 111.408V37.918L1196.25 1.14453L1262.14 37.918Z" stroke="white" stroke-width="2"/>
<path d="M2.12793 146.918V220.408L-63.7627 257.182L-129.652 220.408V146.918L-63.7627 110.145L2.12793 146.918Z" stroke="white" stroke-width="2"/>
<path d="M134.685 146.918V220.408L68.7939 257.182L2.9043 220.408V146.918L68.7939 110.145L134.685 146.918Z" stroke="white" stroke-width="2"/>
<path d="M267.242 146.918V220.408L201.352 257.182L135.462 220.408V146.918L201.352 110.145L267.242 146.918Z" stroke="white" stroke-width="2"/>
<path d="M399.799 146.918V220.408L333.908 257.182L268.019 220.408V146.918L333.908 110.145L399.799 146.918Z" stroke="white" stroke-width="2"/>
<path d="M532.355 146.918V220.408L466.465 257.182L400.575 220.408V146.918L466.465 110.145L532.355 146.918Z" stroke="white" stroke-width="2"/>
<path d="M664.912 146.918V220.408L599.021 257.182L533.132 220.408V146.918L599.021 110.145L664.912 146.918Z" stroke="white" stroke-width="2"/>
<path d="M797.469 146.918V220.408L731.578 257.182L665.688 220.408V146.918L731.578 110.145L797.469 146.918Z" stroke="white" stroke-width="2"/>
<path d="M930.025 146.918V220.408L864.135 257.182L798.245 220.408V146.918L864.135 110.145L930.025 146.918Z" stroke="white" stroke-width="2"/>
<path d="M1062.58 146.918V220.408L996.692 257.182L930.803 220.408V146.918L996.692 110.145L1062.58 146.918Z" stroke="white" stroke-width="2"/>
<path d="M1195.14 146.918V220.408L1129.25 257.182L1063.36 220.408V146.918L1129.25 110.145L1195.14 146.918Z" stroke="white" stroke-width="2"/>
<path d="M67.6846 255.918V329.408L1.79395 366.182L-64.0957 329.408V255.918L1.79395 219.145L67.6846 255.918Z" stroke="white" stroke-width="2"/>
<path d="M200.242 255.918V329.408L134.352 366.182L68.4619 329.408V255.918L134.352 219.145L200.242 255.918Z" stroke="white" stroke-width="2"/>
<path d="M332.799 255.918V329.408L266.908 366.182L201.019 329.408V255.918L266.908 219.145L332.799 255.918Z" stroke="white" stroke-width="2"/>
<path d="M465.355 255.918V329.408L399.465 366.182L333.575 329.408V255.918L399.465 219.145L465.355 255.918Z" stroke="white" stroke-width="2"/>
<path d="M597.912 255.918V329.408L532.021 366.182L466.132 329.408V255.918L532.021 219.145L597.912 255.918Z" stroke="white" stroke-width="2"/>
<path d="M730.469 255.918V329.408L664.578 366.182L598.688 329.408V255.918L664.578 219.145L730.469 255.918Z" stroke="white" stroke-width="2"/>
<path d="M863.025 255.918V329.408L797.135 366.182L731.245 329.408V255.918L797.135 219.145L863.025 255.918Z" stroke="white" stroke-width="2"/>
<path d="M995.583 255.918V329.408L929.692 366.182L863.803 329.408V255.918L929.692 219.145L995.583 255.918Z" stroke="white" stroke-width="2"/>
<path d="M1128.14 255.918V329.408L1062.25 366.182L996.359 329.408V255.918L1062.25 219.145L1128.14 255.918Z" stroke="white" stroke-width="2"/>
<path d="M0.68457 364.918V438.408L-65.2061 475.182L-131.096 438.408V364.918L-65.2061 328.145L0.68457 364.918Z" stroke="white" stroke-width="2"/>
<path d="M133.242 364.918V438.408L67.3516 475.182L1.46191 438.408V364.918L67.3516 328.145L133.242 364.918Z" stroke="white" stroke-width="2"/>
<path d="M265.799 364.918V438.408L199.908 475.182L134.019 438.408V364.918L199.908 328.145L265.799 364.918Z" stroke="white" stroke-width="2"/>
<path d="M398.355 364.918V438.408L332.465 475.182L266.575 438.408V364.918L332.465 328.145L398.355 364.918Z" stroke="white" stroke-width="2"/>
<path d="M530.912 364.918V438.408L465.021 475.182L399.132 438.408V364.918L465.021 328.145L530.912 364.918Z" stroke="white" stroke-width="2"/>
<path d="M663.469 364.918V438.408L597.578 475.182L531.688 438.408V364.918L597.578 328.145L663.469 364.918Z" stroke="#F84C1D" stroke-width="2"/>
<path d="M796.025 364.918V438.408L730.135 475.182L664.245 438.408V364.918L730.135 328.145L796.025 364.918Z" stroke="#F84C1D" stroke-width="2"/>
<path d="M928.583 364.918V438.408L862.692 475.182L796.803 438.408V364.918L862.692 328.145L928.583 364.918Z" stroke="#F84C1D" stroke-width="2"/>
<path d="M1061.14 364.918V438.408L995.249 475.182L929.359 438.408V364.918L995.249 328.145L1061.14 364.918Z" stroke="#F84C1D" stroke-width="2"/>
<path d="M1193.13 364.918V438.408L1127.24 475.182L1061.35 438.408V364.918L1127.24 328.145L1193.13 364.918Z" stroke="#F84C1D" stroke-width="2"/>
<path d="M66.2422 473.918V547.408L0.351562 584.182L-65.5381 547.408V473.918L0.351562 437.145L66.2422 473.918Z" stroke="white" stroke-width="2"/>
<path d="M198.799 473.918V547.408L132.908 584.182L67.0186 547.408V473.918L132.908 437.145L198.799 473.918Z" stroke="white" stroke-width="2"/>
<path d="M331.355 473.918V547.408L265.465 584.182L199.575 547.408V473.918L265.465 437.145L331.355 473.918Z" stroke="white" stroke-width="2"/>
<path d="M463.912 473.918V547.408L398.021 584.182L332.132 547.408V473.918L398.021 437.145L463.912 473.918Z" stroke="white" stroke-width="2"/>
<path d="M596.469 473.918V547.408L530.578 584.182L464.688 547.408V473.918L530.578 437.145L596.469 473.918Z" stroke="white" stroke-width="2"/>
<path d="M729.025 473.918V547.408L663.135 584.182L597.245 547.408V473.918L663.135 437.145L729.025 473.918Z" stroke="white" stroke-width="2"/>
<path d="M861.583 473.918V547.408L795.692 584.182L729.803 547.408V473.918L795.692 437.145L861.583 473.918Z" stroke="#F84C1D" stroke-width="2"/>
<path d="M994.14 473.918V547.408L928.249 584.182L862.359 547.408V473.918L928.249 437.145L994.14 473.918Z" stroke="#F84C1D" stroke-width="2"/>
<path d="M-0.757812 582.918V656.408L-66.6484 693.182L-132.538 656.408V582.918L-66.6484 546.145L-0.757812 582.918Z" stroke="white" stroke-width="2"/>
<path d="M131.799 582.918V656.408L65.9082 693.182L0.0185547 656.408V582.918L65.9082 546.145L131.799 582.918Z" stroke="#F84C1D" stroke-width="2"/>
<path d="M264.355 582.918V656.408L198.465 693.182L132.575 656.408V582.918L198.465 546.145L264.355 582.918Z" stroke="white" stroke-width="2"/>
<path d="M396.912 582.918V656.408L331.021 693.182L265.132 656.408V582.918L331.021 546.145L396.912 582.918Z" stroke="white" stroke-width="2"/>
<path d="M529.469 582.918V656.408L463.578 693.182L397.688 656.408V582.918L463.578 546.145L529.469 582.918Z" stroke="#F84C1D" stroke-width="2"/>
<path d="M662.025 582.918V656.408L596.135 693.182L530.245 656.408V582.918L596.135 546.145L662.025 582.918Z" stroke="#F84C1D" stroke-width="2"/>
<path d="M794.583 584.918V658.408L728.692 695.182L662.803 658.408V584.918L728.692 548.145L794.583 584.918Z" stroke="#F84C1D" stroke-width="2"/>
<path d="M927.14 582.918V656.408L861.249 693.182L795.359 656.408V582.918L861.249 546.145L927.14 582.918Z" stroke="white" stroke-width="2"/>
<path d="M64.7988 691.918V765.408L-1.0918 802.182L-66.9814 765.408V691.918L-1.0918 655.145L64.7988 691.918Z" stroke="white" stroke-width="2"/>
<path d="M197.355 691.918V765.408L131.465 802.182L65.5752 765.408V691.918L131.465 655.145L197.355 691.918Z" stroke="white" stroke-width="2"/>
<path d="M329.912 691.918V765.408L264.021 802.182L198.132 765.408V691.918L264.021 655.145L329.912 691.918Z" stroke="white" stroke-width="2"/>
<path d="M462.469 691.918V765.408L396.578 802.182L330.688 765.408V691.918L396.578 655.145L462.469 691.918Z" stroke="white" stroke-width="2"/>
<path d="M595.025 691.918V765.408L529.135 802.182L463.245 765.408V691.918L529.135 655.145L595.025 691.918Z" stroke="white" stroke-width="2"/>
<path d="M727.583 691.918V765.408L661.692 802.182L595.803 765.408V691.918L661.692 655.145L727.583 691.918Z" stroke="white" stroke-width="2"/>
<path d="M860.14 691.918V765.408L794.249 802.182L728.359 765.408V691.918L794.249 655.145L860.14 691.918Z" stroke="white" stroke-width="2"/>
<path d="M130.355 800.918V874.408L64.4648 911.182L-1.4248 874.408V800.918L64.4648 764.145L130.355 800.918Z" stroke="white" stroke-width="2"/>
<path d="M262.912 800.918V874.408L197.021 911.182L131.132 874.408V800.918L197.021 764.145L262.912 800.918Z" stroke="white" stroke-width="2"/>
<path d="M395.469 800.918V874.408L329.578 911.182L263.688 874.408V800.918L329.578 764.145L395.469 800.918Z" stroke="white" stroke-width="2"/>
<path d="M528.025 800.918V874.408L462.135 911.182L396.245 874.408V800.918L462.135 764.145L528.025 800.918Z" stroke="#F84C1D" stroke-width="2"/>
<path d="M660.583 800.918V874.408L594.692 911.182L528.803 874.408V800.918L594.692 764.145L660.583 800.918Z" stroke="#F84C1D" stroke-width="2"/>
<path d="M793.14 800.918V874.408L727.249 911.182L661.359 874.408V800.918L727.249 764.145L793.14 800.918Z" stroke="#F84C1D" stroke-width="2"/>
<path d="M63.3555 909.918V983.408L-2.53516 1020.18L-68.4248 983.408V909.918L-2.53516 873.145L63.3555 909.918Z" stroke="#F84C1D" stroke-width="2"/>
<path d="M195.912 909.918V983.408L130.021 1020.18L64.1318 983.408V909.918L130.021 873.145L195.912 909.918Z" stroke="#F84C1D" stroke-width="2"/>
<path d="M328.469 909.918V983.408L262.578 1020.18L196.688 983.408V909.918L262.578 873.145L328.469 909.918Z" stroke="#F84C1D" stroke-width="2"/>
<path d="M461.025 909.918V983.408L395.135 1020.18L329.245 983.408V909.918L395.135 873.145L461.025 909.918Z" stroke="#F84C1D" stroke-width="2"/>
<path d="M593.583 909.918V983.408L527.692 1020.18L461.803 983.408V909.918L527.692 873.145L593.583 909.918Z" stroke="#F84C1D" stroke-width="2"/>
<path d="M726.14 909.918V983.408L660.249 1020.18L594.359 983.408V909.918L660.249 873.145L726.14 909.918Z" stroke="#F84C1D" stroke-width="2"/>
<path d="M859.128 909.918V983.408L793.237 1020.18L727.348 983.408V909.918L793.237 873.145L859.128 909.918Z" stroke="#F84C1D" stroke-width="2"/>
<path d="M991.685 909.918V983.408L925.794 1020.18L859.904 983.408V909.918L925.794 873.145L991.685 909.918Z" stroke="#F84C1D" stroke-width="2"/>
<path d="M1124.24 909.918V983.408L1058.35 1020.18L992.461 983.408V909.918L1058.35 873.145L1124.24 909.918Z" stroke="#F84C1D" stroke-width="2"/>
<path d="M1256.8 909.918V983.408L1190.91 1020.18L1125.02 983.408V909.918L1190.91 873.145L1256.8 909.918Z" stroke="#F84C1D" stroke-width="2"/>
<path d="M128.912 1018.92V1092.41L63.0215 1129.18L-2.86816 1092.41V1018.92L63.0215 982.145L128.912 1018.92Z" stroke="#F84C1D" stroke-width="2"/>
<path d="M261.469 1018.92V1092.41L195.578 1129.18L129.688 1092.41V1018.92L195.578 982.145L261.469 1018.92Z" stroke="#F84C1D" stroke-width="2"/>
<path d="M394.025 1018.92V1092.41L328.135 1129.18L262.245 1092.41V1018.92L328.135 982.145L394.025 1018.92Z" stroke="#F84C1D" stroke-width="2"/>
<path d="M526.583 1018.92V1092.41L460.692 1129.18L394.803 1092.41V1018.92L460.692 982.145L526.583 1018.92Z" stroke="#F84C1D" stroke-width="2"/>
<path d="M659.14 1018.92V1092.41L593.249 1129.18L527.359 1092.41V1018.92L593.249 982.145L659.14 1018.92Z" stroke="#F84C1D" stroke-width="2"/>
<path d="M61.9121 1127.92V1201.41L-3.97852 1238.18L-69.8682 1201.41V1127.92L-3.97852 1091.14L61.9121 1127.92Z" stroke="#F84C1D" stroke-width="2"/>
<path d="M194.469 1127.92V1201.41L128.578 1238.18L62.6885 1201.41V1127.92L128.578 1091.14L194.469 1127.92Z" stroke="#F84C1D" stroke-width="2"/>
<path d="M327.025 1127.92V1201.41L261.135 1238.18L195.245 1201.41V1127.92L261.135 1091.14L327.025 1127.92Z" stroke="#F84C1D" stroke-width="2"/>
<path d="M459.583 1127.92V1201.41L393.692 1238.18L327.803 1201.41V1127.92L393.692 1091.14L459.583 1127.92Z" stroke="#F84C1D" stroke-width="2"/>
<path d="M592.14 1127.92V1201.41L526.249 1238.18L460.359 1201.41V1127.92L526.249 1091.14L592.14 1127.92Z" stroke="#F84C1D" stroke-width="2"/>
<path d="M725.128 1128.92V1202.41L659.237 1239.18L593.348 1202.41V1128.92L659.237 1092.14L725.128 1128.92Z" stroke="#F84C1D" stroke-width="2"/>
<path d="M857.685 1128.92V1202.41L791.794 1239.18L725.904 1202.41V1128.92L791.794 1092.14L857.685 1128.92Z" stroke="#F84C1D" stroke-width="2"/>
<path d="M990.242 1128.92V1202.41L924.352 1239.18L858.462 1202.41V1128.92L924.352 1092.14L990.242 1128.92Z" stroke="#F84C1D" stroke-width="2"/>
<path d="M1122.8 1128.92V1202.41L1056.91 1239.18L991.019 1202.41V1128.92L1056.91 1092.14L1122.8 1128.92Z" stroke="#F84C1D" stroke-width="2"/>
<path d="M1255.36 1128.92V1202.41L1189.46 1239.18L1123.58 1202.41V1128.92L1189.46 1092.14L1255.36 1128.92Z" stroke="#F84C1D" stroke-width="2"/>
<path d="M1260.68 256.092V327.907L1195 363.859L1129.32 327.907V256.092L1195 220.14L1260.68 256.092Z" stroke="#F84C1D" stroke-width="2"/>
<path d="M1325.13 364.918V438.408L1259.24 475.182L1193.35 438.408V364.918L1259.24 328.145L1325.13 364.918Z" stroke="#F84C1D" stroke-width="2"/>
<path d="M1127.13 473.918V547.408L1061.24 584.182L995.348 547.408V473.918L1061.24 437.145L1127.13 473.918Z" stroke="#F84C1D" stroke-width="2"/>
<path d="M1259.68 473.918V547.408L1193.79 584.182L1127.9 547.408V473.918L1193.79 437.145L1259.68 473.918Z" stroke="#F84C1D" stroke-width="2"/>
<path d="M1060.13 583.918V657.408L994.237 694.182L928.348 657.408V583.918L994.237 547.145L1060.13 583.918Z" stroke="#F84C1D" stroke-width="2"/>
<path d="M1192.68 583.918V657.408L1126.79 694.182L1060.9 657.408V583.918L1126.79 547.145L1192.68 583.918Z" stroke="#F84C1D" stroke-width="2"/>
<path d="M1325.24 583.918V657.408L1259.35 694.182L1193.46 657.408V583.918L1259.35 547.145L1325.24 583.918Z" stroke="#F84C1D" stroke-width="2"/>
<path d="M993.128 693.918V767.408L927.237 804.182L861.348 767.408V693.918L927.237 657.145L993.128 693.918Z" stroke="#F84C1D" stroke-width="2"/>
<path d="M1125.68 693.918V767.408L1059.79 804.182L993.904 767.408V693.918L1059.79 657.145L1125.68 693.918Z" stroke="#F84C1D" stroke-width="2"/>
<path d="M1258.24 693.918V767.408L1192.35 804.182L1126.46 767.408V693.918L1192.35 657.145L1258.24 693.918Z" stroke="#F84C1D" stroke-width="2"/>
<path d="M926.128 801.918V875.408L860.237 912.182L794.348 875.408V801.918L860.237 765.145L926.128 801.918Z" stroke="#F84C1D" stroke-width="2"/>
<path d="M1058.68 801.918V875.408L992.794 912.182L926.904 875.408V801.918L992.794 765.145L1058.68 801.918Z" stroke="#F84C1D" stroke-width="2"/>
<path d="M1191.24 801.918V875.408L1125.35 912.182L1059.46 875.408V801.918L1125.35 765.145L1191.24 801.918Z" stroke="#F84C1D" stroke-width="2"/>
<path d="M1323.8 801.918V875.408L1257.91 912.182L1192.02 875.408V801.918L1257.91 765.145L1323.8 801.918Z" stroke="#F84C1D" stroke-width="2"/>
<path d="M791.128 1019.92V1093.41L725.237 1130.18L659.348 1093.41V1019.92L725.237 983.145L791.128 1019.92Z" stroke="#F84C1D" stroke-width="2"/>
<path d="M923.685 1019.92V1093.41L857.794 1130.18L791.904 1093.41V1019.92L857.794 983.145L923.685 1019.92Z" stroke="#F84C1D" stroke-width="2"/>
<path d="M1056.24 1019.92V1093.41L990.351 1130.18L924.461 1093.41V1019.92L990.351 983.145L1056.24 1019.92Z" stroke="#F84C1D" stroke-width="2"/>
<path d="M1188.8 1019.92V1093.41L1122.91 1130.18L1057.02 1093.41V1019.92L1122.91 983.145L1188.8 1019.92Z" stroke="#F84C1D" stroke-width="2"/>
<path d="M1321.36 1019.92V1093.41L1255.46 1130.18L1189.58 1093.41V1019.92L1255.46 983.145L1321.36 1019.92Z" stroke="#F84C1D" stroke-width="2"/>
</g>
</g>
</g>
<defs>
<radialGradient id="paint0_radial_1_1122" cx="0" cy="0" r="1" gradientUnits="userSpaceOnUse" gradientTransform="translate(600 600) rotate(90) scale(671)">
<stop/>
<stop offset="1" stop-opacity="0"/>
</radialGradient>
<clipPath id="clip0_1_1122">
<rect width="1200" height="1200" fill="white"/>
</clipPath>
</defs>
</svg>
