<svg width="650" height="171" viewBox="0 0 650 171" fill="none" xmlns="http://www.w3.org/2000/svg">
<path d="M0 13.0607V0H120.801V13.0607H0Z" fill="#F84C1D"/>
<path d="M6.57076 32.1493V20.5956H115.746V32.1493H6.57076Z" fill="#F84C1D"/>
<path d="M55.0933 114.532V41.1912H66.213V114.532L60.1477 110.513L55.0933 114.532Z" fill="#F84C1D"/>
<path d="M75.8165 40.689V129.602L87.9472 136.132V53.2473L75.8165 40.689Z" fill="#F84C1D"/>
<path d="M58.8731 134.451L14.1523 160.746V144.87L58.8731 120.56L107.659 144.87V160.746L58.8731 134.451Z" fill="#F84C1D"/>
<path d="M14.1523 43.2007V145.677L24.7667 139.649L25.7775 54.7543L14.1523 43.2007Z" fill="#F84C1D"/>
<path d="M44.4789 43.2007H14.1523L25.7775 54.7543H34.8755L44.4789 43.2007Z" fill="#F84C1D"/>
<path d="M35.3811 134.123V53.7495L45.49 42.1958V128.095L35.3811 134.123Z" fill="#F84C1D"/>
<path d="M44.9845 151.202V140.653L34.3702 146.179V170.291L59.137 155.221L86.4309 170.291V148.188L74.8057 141.658V150.197L59.137 140.653L44.9845 151.202Z" fill="#F84C1D"/>
<path d="M75.8165 41.1912L87.9472 54.2518H97.0451L107.659 41.1912H75.8165Z" fill="#F84C1D"/>
<path d="M96.0342 54.7541L107.659 41.1912V146.179L96.0342 139.648V54.7541Z" fill="#F84C1D"/>
<path d="M179.526 110.316V119.159H147.045V110.316H179.526ZM150.155 54.4634V119.159H139.002V54.4634H150.155ZM200.054 54.4634V119.159H188.901V54.4634H200.054ZM238.178 89.9214H221.693L221.604 81.79H236.001C238.43 81.79 240.489 81.4346 242.177 80.7236C243.895 79.9831 245.199 78.9315 246.087 77.5688C246.976 76.1766 247.42 74.5029 247.42 72.5479C247.42 70.3854 247.006 68.6229 246.176 67.2603C245.347 65.8976 244.073 64.9053 242.355 64.2832C240.666 63.6611 238.504 63.3501 235.868 63.3501H225.07V119.159H213.917V54.4634H235.868C239.422 54.4634 242.592 54.804 245.376 55.4854C248.19 56.1667 250.575 57.2331 252.53 58.6846C254.515 60.1064 256.011 61.9134 257.018 64.1055C258.055 66.2975 258.573 68.9043 258.573 71.9258C258.573 74.5918 257.936 77.0356 256.662 79.2573C255.389 81.4494 253.508 83.2415 251.019 84.6338C248.531 86.026 245.436 86.8555 241.733 87.1221L238.178 89.9214ZM237.689 119.159H218.183L223.204 110.316H237.689C240.207 110.316 242.31 109.902 243.999 109.072C245.687 108.213 246.946 107.043 247.776 105.562C248.635 104.051 249.064 102.289 249.064 100.274C249.064 98.1712 248.694 96.3494 247.953 94.8091C247.213 93.2391 246.043 92.0394 244.443 91.21C242.844 90.3509 240.755 89.9214 238.178 89.9214H225.648L225.737 81.79H242.044L244.577 84.856C248.131 84.9744 251.049 85.7594 253.33 87.2109C255.641 88.6624 257.359 90.5435 258.484 92.854C259.61 95.1646 260.173 97.6528 260.173 100.319C260.173 104.436 259.269 107.887 257.462 110.672C255.685 113.456 253.123 115.574 249.775 117.026C246.428 118.448 242.399 119.159 237.689 119.159ZM271.414 54.4634H294.298C299.215 54.4634 303.407 55.2039 306.872 56.6851C310.338 58.1662 312.989 60.3582 314.826 63.2612C316.692 66.1346 317.625 69.6893 317.625 73.9253C317.625 77.1541 317.033 79.9979 315.848 82.4565C314.663 84.9152 312.989 86.9888 310.827 88.6772C308.665 90.3361 306.087 91.6247 303.096 92.543L299.719 94.187H279.146L279.057 85.3447H294.475C297.141 85.3447 299.363 84.8708 301.141 83.9229C302.918 82.9749 304.251 81.6864 305.14 80.0571C306.058 78.3983 306.517 76.5321 306.517 74.4585C306.517 72.2072 306.073 70.2521 305.184 68.5933C304.325 66.9048 302.992 65.6162 301.185 64.7275C299.378 63.8092 297.082 63.3501 294.298 63.3501H282.567V119.159H271.414V54.4634ZM308.339 119.159L293.142 90.0991L304.828 90.0547L320.247 118.581V119.159H308.339ZM340.642 54.4634V119.159H329.489V54.4634H340.642ZM380.499 63.0835L361.17 119.159H349.484L373.834 54.4634H381.299L380.499 63.0835ZM396.673 119.159L377.3 63.0835L376.455 54.4634H383.965L408.403 119.159H396.673ZM395.74 95.1646V104.007H360.548V95.1646H395.74ZM466.967 54.4634V119.159H455.814L426.799 72.8145V119.159H415.646V54.4634H426.799L455.903 100.896V54.4634H466.967ZM506.246 63.0835L486.917 119.159H475.231L499.581 54.4634H507.046L506.246 63.0835ZM522.42 119.159L503.047 63.0835L502.203 54.4634H509.712L534.15 119.159H522.42ZM521.487 95.1646V104.007H486.295V95.1646H521.487ZM589.248 63.0835L569.919 119.159H558.233L582.583 54.4634H590.048L589.248 63.0835ZM605.422 119.159L586.049 63.0835L585.204 54.4634H592.714L617.152 119.159H605.422ZM604.489 95.1646V104.007H569.297V95.1646H604.489ZM636.303 54.4634V119.159H625.15V54.4634H636.303Z" fill="#F84C1D"/>
</svg>
