<svg width="663" height="214" viewBox="0 0 663 214" fill="none" xmlns="http://www.w3.org/2000/svg">
<path fill-rule="evenodd" clip-rule="evenodd" d="M161.002 199.697C169.647 194.911 173.867 191.033 181.002 184.197C191.154 174.469 196.645 168.238 203.002 155.697C207.581 146.664 209.343 141.091 211.502 131.197C213.345 122.749 213.811 117.841 214.002 109.197C214.162 101.963 214.12 97.8451 213.002 90.6967C212.062 84.6825 211.009 81.246 209.306 75.6874C209.207 75.3646 209.106 75.0347 209.002 74.6967C208.782 73.9763 208.573 73.2874 208.372 72.624L208.371 72.6219C206.624 66.8657 205.459 63.0257 202.502 57.1967C198.876 50.0487 196.049 46.4233 191.002 40.1967C184.916 32.6885 181.084 28.6906 173.502 22.6967C166.958 17.5235 163.006 14.8396 155.502 11.1967C149.499 8.28231 145.901 7.09192 139.502 5.19668C132.232 3.04319 128.025 2.1499 120.502 1.19668C108.879 -0.276109 102.092 -0.517135 90.5021 1.19668C81.5061 2.52696 76.4449 3.81762 68.0021 7.19668C60.6228 10.1501 56.6384 12.3221 50.0021 16.6967C42.3624 21.7327 38.4138 25.1684 32.0021 31.6967C26.1683 37.6366 23.2436 41.3531 18.5021 48.1967C14.6117 53.812 12.5625 57.0892 9.50214 63.1967C9.34627 63.5078 9.1949 63.8091 9.04765 64.1023L9.04451 64.1086L9.04174 64.1141C7.11985 67.9408 5.89879 70.3721 4.50214 74.6967C2.94641 79.5139 2.52505 82.8124 1.97284 87.1352C1.83157 88.2411 1.68173 89.4141 1.50214 90.6967C1.41291 91.334 1.32656 91.9428 1.24341 92.5292C0.515682 97.6606 0.0329477 101.064 0.00214273 106.697C-0.0343091 113.361 0.391417 117.125 1.50214 123.697C2.47296 129.44 3.26714 132.636 5.00214 138.197C6.4655 142.887 7.54212 145.479 9.39736 149.944L9.50214 150.197C9.92184 151.207 10.287 152.122 10.6302 152.981C11.7673 155.829 12.6633 158.073 14.5021 161.197C16.3395 164.318 17.8434 166.171 19.7934 168.574C20.3246 169.228 20.8889 169.924 21.5021 170.697L21.8592 171.147C25.5097 175.75 27.6808 178.487 32.0021 182.697C37.8782 188.421 41.6934 191.121 48.5021 195.697C49.1669 196.143 49.8018 196.573 50.4138 196.986L50.4207 196.991C55.8196 200.641 59.435 203.085 66.0021 205.697C66.9083 206.057 67.7784 206.41 68.6208 206.752C75.7185 209.631 80.8484 211.712 89.0021 210.697C93.2341 210.17 99.5021 207.697 99.5021 207.697C99.5021 207.697 87.0723 206.174 79.5021 203.697C73.8488 201.847 65.5021 197.697 65.5021 197.697C65.5021 197.697 75.1994 194.466 81.5021 192.697C87.7031 190.956 91.2046 190.047 97.5021 188.697C102.745 187.573 105.706 187.03 111.002 186.197C117.223 185.218 120.723 184.676 127.002 184.197C131.276 183.87 138.295 184.542 144.172 185.103C151.95 185.847 157.729 186.4 152.502 184.197C148.618 182.56 142.002 181.697 142.002 181.697L130.502 180.697H119.502C119.502 180.697 109.111 181.695 102.502 182.697C95.2323 183.798 91.1569 184.501 84.0021 186.197L83.2313 186.379C77.9854 187.621 74.8025 188.374 69.5021 190.197C68.1071 190.676 66.9993 191.249 65.9434 191.794C64.3001 192.644 62.7823 193.428 60.5021 193.697C58.7568 193.902 56.0021 193.697 56.0021 193.697L39.0021 181.697V179.197C39.0021 179.197 57.0464 170.322 69.5021 167.697C69.9483 167.603 70.3695 167.513 70.7723 167.426C73.5166 166.84 75.4042 166.436 78.5021 166.197C80.5371 166.039 82.0472 166.088 83.6863 166.14C84.556 166.168 85.4621 166.197 86.5021 166.197H96.5021H112.002H128.502H130.502L97.5021 162.697L99.5021 161.697L118.502 161.197H138.002C139.443 161.197 140.653 161.094 141.798 160.996C143.911 160.817 145.8 160.656 148.502 161.197C152.669 162.03 161.002 162.697 161.002 162.697C161.002 162.697 149.335 159.363 143.502 158.197C139.566 157.41 138.17 157.379 136.476 157.341C135.66 157.323 134.774 157.303 133.502 157.197C126.292 156.592 122.236 156.329 115.002 156.197C114.404 156.186 113.848 156.174 113.32 156.163C110.578 156.107 108.611 156.066 105.502 156.197C102.487 156.323 100.408 156.555 97.9612 156.828C96.9104 156.945 95.7918 157.07 94.5021 157.197C93.1285 157.332 91.9815 157.499 90.8925 157.658C89.0383 157.928 87.3522 158.173 85.0021 158.197C80.8833 158.238 78.5505 157.957 74.5021 157.197C70.3478 156.417 67.5825 155.319 64.382 154.049C62.9073 153.463 61.3401 152.841 59.5021 152.197C58.2395 151.754 57.1321 151.385 56.0923 151.039C53.5799 150.202 51.4621 149.497 48.5021 148.197C45.3041 146.792 43.5643 145.877 40.5021 144.197C39.122 143.439 37.0021 142.197 37.0021 142.197C37.0021 142.197 43.012 139.527 47.0021 138.197C50.4627 137.043 54.3355 135.863 56.0021 135.697C57.6688 135.53 61.2021 135.097 62.0021 134.697C62.0021 134.697 68.0021 133.197 70.5021 132.697C73.0021 132.197 80.0021 132.197 80.0021 132.197C80.0021 132.197 83.0627 131.97 85.0021 132.197C87.1268 132.445 88.9039 133.351 90.5362 134.184C91.921 134.89 93.2017 135.544 94.5021 135.697C97.3355 136.03 103.102 136.697 103.502 136.697C103.502 136.697 107.669 137.363 109.502 137.697C110.286 137.839 111.071 138.012 111.816 138.177C112.812 138.397 113.739 138.601 114.502 138.697C115.835 138.863 119.502 139.197 119.502 139.197H127.002C128.545 139.197 124.192 138.08 119.859 136.969C118.106 136.519 116.357 136.07 115.002 135.697C110.528 134.463 103.502 132.697 103.502 132.697C103.502 132.697 112.672 132.125 118.502 132.697C122.056 133.045 124.619 133.675 127.362 134.348C129.208 134.802 131.136 135.275 133.502 135.697C135.621 136.074 137.346 136.313 139.018 136.546C141.187 136.847 143.268 137.136 146.002 137.697C150.734 138.667 158.002 140.697 158.002 140.697C158.002 140.697 152.434 136.644 148.502 134.697C144.216 132.573 141.362 131.796 137.132 130.643C136.611 130.501 136.07 130.353 135.502 130.197C132.109 129.261 129.811 128.82 126.897 128.261C126.006 128.089 125.057 127.907 124.002 127.697C123.139 127.524 122.381 127.364 121.671 127.214C119.817 126.822 118.281 126.497 116.002 126.197C111.105 125.552 107.561 125.744 103.597 125.958C101.449 126.074 99.1783 126.197 96.5021 126.197C94.5808 126.197 92.954 126.25 91.4155 126.3C88.576 126.393 86.0371 126.476 82.5021 126.197C79.3634 125.948 77.5951 125.785 74.5021 125.197C65.6121 123.505 60.5887 120.741 53.2874 116.723L53.2857 116.722C52.3954 116.233 51.4713 115.724 50.5021 115.197C45.4342 112.438 42.5928 110.504 38.1083 107.45C37.7507 107.206 37.3826 106.955 37.0021 106.697C35.0312 105.356 32.0021 103.197 32.0021 103.197C32.0021 103.197 40.9819 99.3353 47.0021 97.6967C51.8056 96.3893 54.5447 95.6511 59.5021 95.1967C62.4981 94.9221 65.385 95.0321 67.7621 95.1227C68.7792 95.1615 69.703 95.1967 70.5021 95.1967H80.0021C80.0021 95.1967 87.8355 97.8633 91.0021 99.1967C92.8572 99.9778 94.9563 100.315 97.2727 100.686C98.9104 100.949 100.657 101.23 102.502 101.697C107.234 102.894 109.879 103.63 114.502 105.197C120.542 107.243 123.96 108.771 129.52 111.257L130.502 111.697C133.453 113.015 135.102 113.77 138.002 115.197C143.176 117.742 151.002 122.197 151.002 122.197C151.002 122.197 143.414 115.344 138.002 111.697C133.561 108.704 130.383 107.127 126.31 105.105C125.133 104.521 123.881 103.9 122.502 103.197C121.158 102.511 119.939 101.876 118.791 101.278C114.355 98.9674 110.973 97.2058 105.502 95.1967C100.324 93.2953 96.9463 92.4853 92.1782 91.342C91.3355 91.1399 90.4493 90.9274 89.5021 90.6967C87.6955 90.2565 86.1812 90.0037 84.7299 89.7614C82.5942 89.4048 80.5951 89.0711 78.0021 88.1967C75.9122 87.4919 74.4313 86.7563 72.8764 85.9839C71.7197 85.4094 70.522 84.8144 69.0021 84.1967C67.4841 83.5797 66.1971 83.1822 64.9599 82.8001C63.2119 82.2603 61.5632 81.7511 59.5021 80.6967C57.7042 79.7769 56.5001 78.9302 55.1858 78.006C54.3852 77.443 53.5437 76.8513 52.5021 76.1967C49.9786 74.6107 46.0021 72.1967 46.0021 72.1967C46.0021 72.1967 52.6508 70.5569 57.0021 70.1967C59.4002 69.9981 61.1232 70.0571 63.0502 70.1231C64.0944 70.1589 65.1984 70.1967 66.5021 70.1967C67.8059 70.1967 68.9104 70.1531 69.9551 70.1119C71.883 70.0359 73.6068 69.968 76.0021 70.1967C78.6646 70.4509 80.5025 70.8998 82.6035 71.4129C83.631 71.6639 84.7215 71.9302 86.0021 72.1967C87.4384 72.4955 88.6821 72.7198 89.8527 72.9309C92.3493 73.3811 94.5132 73.7714 97.5021 74.6967C99.7247 75.3847 101.288 76.0474 102.988 76.7679C104.043 77.2153 105.151 77.6849 106.502 78.1967C108.246 78.8575 109.638 79.3586 111.008 79.8523C112.543 80.4051 114.052 80.9486 116.002 81.6967C116.982 82.0725 117.857 82.4003 118.679 82.7079C121.151 83.6332 123.135 84.3761 126.002 85.6967C130.843 87.9263 133.502 89.3407 138.002 92.1967C139.345 93.0487 140.34 93.7729 141.344 94.5034C142.29 95.1915 143.244 95.8852 144.502 96.6967C145.879 97.5845 147.069 98.1984 148.218 98.7909C149.769 99.5913 151.244 100.353 153.002 101.697C153.902 102.384 154.539 103.015 155.169 103.639C155.848 104.312 156.519 104.976 157.502 105.697C157.75 105.879 157.98 106.05 158.197 106.213C159.283 107.026 160.079 107.622 161.502 108.197C164.983 109.601 159.988 105.087 156.092 101.566C155.107 100.676 154.192 99.8485 153.502 99.1967C151.473 97.2801 149.926 96.1011 148.119 94.723C147.319 94.1135 146.468 93.4651 145.502 92.6967C144.266 91.7136 143.203 90.8351 142.204 90.0102C139.77 87.9995 137.721 86.3076 134.502 84.1967C130.854 81.8046 128.138 80.4762 124.93 78.9076C123.577 78.246 122.137 77.5416 120.502 76.6967C118.982 75.9111 117.677 75.1979 116.451 74.5277C113.609 72.9745 111.19 71.6526 107.502 70.1967C102.309 68.1468 98.5687 67.3612 94.0388 66.4098C92.343 66.0537 90.5367 65.6743 88.5021 65.1967C83.0587 63.9188 74.5021 62.1967 74.5021 62.1967H52.5021L39.0021 65.1967L24.5021 69.1967L18.5021 72.1967L11.5021 74.6967C11.5021 74.6967 12.5864 70.3882 13.5021 67.6967C13.8051 66.8062 14.0408 65.9954 14.2627 65.232C14.8878 63.082 15.4032 61.309 17.0021 59.1967C18.1688 57.6554 18.9944 56.9063 20.5021 55.6967C22.9052 53.7688 24.9039 53.0555 27.3638 52.1776C28.1817 51.8857 29.0505 51.5756 30.0021 51.1967C32.4346 50.2281 34.1627 49.6977 36.2117 49.0689C37.0622 48.8079 37.9679 48.53 39.0021 48.1967C40.0016 47.8746 40.8539 47.5732 41.6563 47.2895C43.3549 46.6888 44.8294 46.1674 47.0021 45.6967C49.89 45.071 51.5499 44.8204 54.5021 44.6967C54.6592 44.6901 54.8084 44.6835 54.9516 44.6772C56.0532 44.6287 56.7967 44.5959 58.0021 44.6967C61.7952 45.0138 64.1262 46.4358 66.8735 48.1119C67.9756 48.7843 69.1448 49.4975 70.5021 50.1967C72.1907 51.0665 73.4783 51.9049 74.7298 52.7198C76.3027 53.744 77.8187 54.7311 80.0021 55.6967C81.9228 56.546 83.2894 56.9867 84.9393 57.5187C85.5699 57.722 86.242 57.9387 87.0021 58.1967C89.8626 59.1674 91.3958 59.6354 93.9665 60.4203C94.7068 60.6463 95.5332 60.8986 96.5021 61.1967C100.835 62.53 110.502 65.1967 110.502 65.1967C111.302 65.1967 116.835 67.1967 119.502 68.1967C121.711 69.0251 122.965 69.3668 124.785 69.8629C125.162 69.9656 125.563 70.075 126.002 70.1967C131.39 71.69 140.002 73.1967 140.002 73.1967C140.002 73.1967 132.728 69.7551 128.002 67.6967C124.792 66.2985 122.273 65.3167 119.725 64.3237C117.366 63.4041 114.982 62.4749 112.002 61.1967C109.381 60.0722 107.293 59.0678 105.274 58.0964C102.592 56.8061 100.032 55.5742 96.5021 54.1967C93.6053 53.0662 91.5002 52.3704 89.1338 51.5881C87.8817 51.1742 86.5565 50.7361 85.0021 50.1967C79.9267 48.4353 72.0021 45.6967 72.0021 45.6967C72.0021 45.6967 77.4666 44.6193 81.0021 44.6967C83.2984 44.747 84.7965 45.0229 86.7178 45.3768C87.2682 45.4782 87.8535 45.586 88.5021 45.6967C92.0219 46.2974 94.2546 46.8654 97.2501 47.6275L97.252 47.628C97.9517 47.806 98.693 47.9946 99.5021 48.1967C100.595 48.4697 101.572 48.7 102.488 48.9161C105.192 49.5539 107.374 50.0685 110.502 51.1967C113.115 52.1389 114.902 53.0126 116.901 53.9898C117.984 54.5193 119.13 55.0791 120.502 55.6967C121.875 56.3143 123.039 56.8277 124.14 57.3132C126.173 58.2094 127.991 59.0106 130.502 60.1967C131.683 60.7541 132.742 61.2378 133.736 61.6918L133.737 61.6924C136.732 63.0602 139.138 64.159 142.502 66.1967C144.385 67.337 145.573 68.1632 147.11 69.2322L147.111 69.2331C147.54 69.5314 147.996 69.8485 148.502 70.1967C149.436 70.8395 150.274 71.396 151.06 71.9183C153.279 73.393 155.087 74.5949 157.502 76.6967C158.847 77.8671 159.776 78.8654 160.727 79.8875C161.543 80.765 162.376 81.6601 163.502 82.6967C164.632 83.7361 165.596 84.4936 166.541 85.2362C167.643 86.1022 168.72 86.9478 170.002 88.1967C172.082 90.2217 175.002 93.6967 175.002 93.6967L179.002 97.6967C179.002 97.6967 175.778 92.4301 173.502 89.1967L173.427 89.0898C169.876 84.0434 167.835 81.1426 163.502 76.6967C158.564 71.6294 155.298 69.2552 149.502 65.1967C146.609 63.171 144.65 61.9934 142.039 60.4247L142.036 60.4226C141.403 60.0428 140.733 59.64 140.002 59.1967C138.851 58.4984 137.812 57.8568 136.834 57.2529C133.239 55.0328 130.472 53.3242 126.002 51.1967C121.581 49.0925 118.645 48.0529 114.588 46.6165L114.587 46.616L114.58 46.6136C113.772 46.3276 112.92 46.0258 112.002 45.6967L111.258 45.4296L110.909 45.3044L110.902 45.3016C105.582 43.3907 102.269 42.201 96.5021 40.6967L96.4007 40.6702C92.0166 39.5266 89.5125 38.8735 85.0021 38.1967C80.389 37.5045 77.588 37.4018 73.2382 37.2424C72.84 37.2278 72.4289 37.2127 72.0021 37.1967C71.2003 37.1665 70.4558 37.1348 69.7497 37.1047C66.1602 36.9518 63.5658 36.8412 59.5021 37.1967C55.6247 37.5359 53.0292 38.1266 49.8894 38.8412C48.704 39.111 47.441 39.3984 46.0021 39.6967C42.4766 40.4274 40.5057 40.8669 37.0021 41.6967C33.8685 42.4389 29.0021 43.6967 29.0021 43.6967C29.0021 43.6967 33.5616 38.187 37.0021 35.1967C40.6 32.0696 42.8143 30.4738 47.0021 28.1967C51.0253 26.0091 53.5291 25.1792 57.8269 23.7548L58.0021 23.6967C58.2911 23.6009 58.5664 23.5091 58.8312 23.4208C61.0394 22.6844 62.5125 22.1932 65.0021 21.6967C69.7635 20.7471 73.1449 21.0232 77.1528 21.3505C78.7865 21.4839 80.5243 21.6258 82.5021 21.6967C84.0836 21.7533 85.4842 21.7676 86.7992 21.781C90.3631 21.8174 93.2987 21.8474 97.5021 22.6967C100.287 23.2594 102.158 23.8998 104.353 24.6509C105.307 24.9777 106.323 25.3253 107.502 25.6967C112.214 27.1808 114.838 28.069 119.502 29.6967C120.815 30.1549 121.964 30.5252 123.044 30.8732C125.514 31.669 127.622 32.3483 130.502 33.6967C133.113 34.919 134.539 35.6985 137.002 37.1967C138.994 38.4081 140.396 39.5113 141.831 40.6405C143.065 41.6115 144.323 42.6018 146.002 43.6967C148.863 45.5626 153.502 48.1967 153.502 48.1967C153.502 48.1967 148.067 42.962 144.502 39.6967C143.441 38.7248 142.545 37.8549 141.702 37.0371C139.791 35.1822 138.157 33.5956 135.502 31.6967C130.908 28.41 127.483 27.0003 122.943 25.1316C121.869 24.6893 120.732 24.2214 119.502 23.6967C114.331 21.4904 111.38 20.3349 106.002 18.6967C101.381 17.2891 98.7637 16.51 94.0021 15.6967C83.416 13.8885 66.5021 15.6967 66.5021 15.6967L70.5021 13.1967C70.5021 13.1967 76.7964 10.448 81.0021 9.19668C81.4461 9.0646 81.8637 8.93828 82.2624 8.81766C84.7994 8.0502 86.5723 7.51387 89.5021 7.19668C94.5644 6.64864 97.5224 7.13429 102.502 8.19668C105.716 8.88228 107.848 9.74925 110.331 10.7594C111.442 11.211 112.623 11.6912 114.002 12.1967C115.83 12.8664 117.452 13.4145 118.974 13.929C122.869 15.245 126.115 16.3419 130.502 18.6967C133.721 20.4243 135.841 21.962 138.212 23.6817C139.497 24.6135 140.855 25.5988 142.502 26.6967C143.943 27.6573 145.19 28.4301 146.37 29.1609C148.547 30.5096 150.494 31.7156 153.002 33.6967C155.794 35.9021 157.594 37.7538 159.569 39.7873C160.738 40.9899 161.968 42.2561 163.502 43.6967C165.466 45.541 167.144 47.0174 168.745 48.4264C171.25 50.6308 173.568 52.6704 176.502 55.6967C179.967 59.271 181.869 61.3277 185.002 65.1967C187.902 68.7782 189.45 70.8599 192.002 74.6967C195.973 80.6655 201.002 90.6967 201.002 90.6967C201.002 90.6967 198.298 80.6834 195.502 74.6967C192.909 69.144 191.039 66.2014 187.502 61.1967C183.775 55.9222 181.211 53.1991 176.892 48.6106L176.502 48.1967C172.054 43.47 169.361 41.0003 164.502 36.6967C159.411 32.1877 156.535 29.6516 151.002 25.6967C148.138 23.6495 146.503 22.5373 143.502 20.6967C141.077 19.2089 139.345 18.2872 137.288 17.1931C136.439 16.7411 135.534 16.2596 134.502 15.6967C133.428 15.1105 132.547 14.6449 131.698 14.1955L131.697 14.1949L131.694 14.1933L131.693 14.1928C130.543 13.5846 129.448 13.0056 128.002 12.1967C124.641 10.3162 119.502 7.19668 119.502 7.19668C119.502 7.19668 126.258 7.42427 130.502 8.19668C136.76 9.33562 140.171 10.6562 146.002 13.1967C151.993 15.8067 155.175 17.8873 160.51 21.3749L161.002 21.6967C165.449 24.6026 167.83 26.4094 172.002 29.6967C172.839 30.3557 173.606 30.9478 174.329 31.5055C177.087 33.6324 179.198 35.2601 182.002 38.1967C185.594 41.958 187.358 44.6462 189.967 48.623L189.97 48.6264C190.299 49.1278 190.641 49.6496 191.002 50.1967C193.992 54.7241 195.627 57.3189 198.002 62.1967C200.1 66.5047 201.064 69.228 202.552 73.427L202.553 73.4308L202.762 74.019C202.84 74.2405 202.92 74.4663 203.002 74.6967C203.306 75.5521 203.59 76.3305 203.858 77.0643C204.92 79.9742 205.725 82.1813 206.502 85.6967C207.644 90.8631 207.766 94.0377 207.957 99.0272L207.957 99.0402C207.972 99.4149 207.987 99.7999 208.002 100.197C208.14 103.709 208.167 105.686 208.002 109.197C207.763 114.302 207.376 117.161 206.502 122.197C205.506 127.936 204.724 131.132 203.002 136.697C200.955 143.313 199.452 146.931 196.502 153.197L196.378 153.461C193.999 158.515 192.613 161.459 189.502 166.197C185.921 171.652 183.662 174.627 179.002 179.197C174.735 183.382 171.951 185.344 167.002 188.697C163.905 190.795 161.613 192.047 158.945 193.505C157.743 194.162 156.465 194.86 155.002 195.697C153.849 196.356 152.819 196.951 151.852 197.509L151.84 197.516L151.837 197.518C148.736 199.308 146.279 200.727 142.502 202.697C133.748 207.263 119.502 213.197 119.502 213.197C119.502 213.197 132.438 210.313 140.502 207.697C141.801 207.275 143.014 206.891 144.167 206.526C150.272 204.593 154.678 203.198 161.002 199.697ZM24.0021 98.1967L11.0021 82.6967L40.5021 73.1967L62.5021 88.1967C62.5021 88.1967 54.479 87.6753 49.5021 88.6967C46.9624 89.2179 45.28 89.873 43.302 90.6433C42.4534 90.9737 41.5505 91.3254 40.5021 91.6967C33.9739 94.0089 24.0021 98.1967 24.0021 98.1967ZM34.5021 112.197L25.5021 106.197L9.50214 115.197L7.00214 119.697L13.5021 127.197L27.0021 137.697H32.0021L50.5021 130.697L64.0021 127.697L46.0021 119.697L34.5021 112.197ZM6.00214 108.697C5.00429 108.697 6.50214 89.1966 8.00214 89.1967C9.50214 89.1967 18.0021 99.1966 17.5021 102.197C17.0021 105.197 7 108.697 6.00214 108.697ZM14.5021 145.197C14.5021 145.197 19.1688 142.197 21.5021 141.197C23.8355 140.197 10.5021 130.697 10.5021 130.697C10.5021 130.697 9.61432 133.09 9.50214 134.697C9.18572 139.227 14.5021 145.197 14.5021 145.197ZM18.0021 152.197C18.0021 152.197 23.7867 146.459 28.5021 146.197C31.7726 146.015 33.7754 147.568 35.9854 149.281C37.3105 150.308 38.7101 151.393 40.5021 152.197C44.7333 154.094 47.7284 155.178 51.3097 156.475C52.7414 156.993 54.2667 157.545 56.0021 158.197C59.7036 159.586 65.5021 161.697 65.5021 161.697L33.5021 176.197L18.0021 152.197Z" fill="url(#paint0_linear_348_13401)"/>
<path d="M246.068 141.697V71.8785H260.83V129.526H290.761V141.697H246.068ZM315.298 71.8785V141.697H300.537V71.8785H315.298ZM327.443 141.697V71.8785H355.398C360.534 71.8785 364.818 72.6399 368.25 74.1626C371.682 75.6854 374.261 77.799 375.989 80.5035C377.716 83.1854 378.58 86.2763 378.58 89.7763C378.58 92.5035 378.034 94.9013 376.943 96.9694C375.852 99.0149 374.352 100.697 372.443 102.015C370.557 103.31 368.398 104.231 365.966 104.776V105.458C368.625 105.572 371.114 106.322 373.432 107.708C375.773 109.094 377.67 111.038 379.125 113.538C380.58 116.015 381.307 118.969 381.307 122.401C381.307 126.106 380.386 129.413 378.545 132.322C376.727 135.208 374.034 137.492 370.466 139.174C366.898 140.856 362.5 141.697 357.273 141.697H327.443ZM342.205 129.629H354.239C358.352 129.629 361.352 128.844 363.239 127.276C365.125 125.685 366.068 123.572 366.068 120.935C366.068 119.004 365.602 117.299 364.67 115.822C363.739 114.344 362.409 113.185 360.682 112.344C358.977 111.504 356.943 111.083 354.58 111.083H342.205V129.629ZM342.205 101.094H353.148C355.17 101.094 356.966 100.742 358.534 100.038C360.125 99.3104 361.375 98.2876 362.284 96.9694C363.216 95.6513 363.682 94.0717 363.682 92.2308C363.682 89.7081 362.784 87.674 360.989 86.1285C359.216 84.5831 356.693 83.8103 353.42 83.8103H342.205V101.094ZM390.912 141.697V71.8785H418.457C423.73 71.8785 428.23 72.8217 431.957 74.7081C435.707 76.5717 438.56 79.2194 440.514 82.6513C442.491 86.0604 443.48 90.0717 443.48 94.6854C443.48 99.3217 442.48 103.31 440.48 106.651C438.48 109.969 435.582 112.515 431.787 114.288C428.014 116.06 423.446 116.947 418.082 116.947H399.639V105.083H415.696C418.514 105.083 420.855 104.697 422.719 103.924C424.582 103.151 425.969 101.992 426.878 100.447C427.81 98.9013 428.276 96.9808 428.276 94.6854C428.276 92.3672 427.81 90.4126 426.878 88.8217C425.969 87.2308 424.571 86.0263 422.685 85.2081C420.821 84.3672 418.469 83.9467 415.628 83.9467H405.673V141.697H390.912ZM428.616 109.924L445.969 141.697H429.673L412.696 109.924H428.616ZM465.946 141.697H450.128L474.23 71.8785H493.253L517.321 141.697H501.503L484.014 87.8331H483.469L465.946 141.697ZM464.957 114.254H502.321V125.776H464.957V114.254ZM584.122 71.8785V141.697H571.372L540.997 97.7535H540.486V141.697H525.724V71.8785H538.679L568.815 115.788H569.429V71.8785H584.122ZM608.352 141.697H592.534L616.636 71.8785H635.659L659.727 141.697H643.909L626.42 87.8331H625.875L608.352 141.697ZM607.364 114.254H644.727V125.776H607.364V114.254Z" fill="url(#paint1_linear_348_13401)"/>
<defs>
<linearGradient id="paint0_linear_348_13401" x1="76" y1="83.1967" x2="204.5" y2="155.197" gradientUnits="userSpaceOnUse">
<stop stop-color="#0046FF"/>
<stop offset="1" stop-color="#4DA3FF"/>
</linearGradient>
<linearGradient id="paint1_linear_348_13401" x1="240" y1="106.697" x2="663" y2="106.697" gradientUnits="userSpaceOnUse">
<stop offset="0.576923" stop-color="#0046FF"/>
<stop offset="1" stop-color="#4DA3FF"/>
</linearGradient>
</defs>
</svg>
