<svg width="120" height="170" viewBox="0 0 120 170" fill="none" xmlns="http://www.w3.org/2000/svg">
<path d="M0 13V0H119.5V13H0Z" fill="#F84C1D"/>
<path d="M6.5 32V20.5H114.5V32H6.5Z" fill="#F84C1D"/>
<path d="M54.5 114V41H65.5V114L59.5 110L54.5 114Z" fill="#F84C1D"/>
<path d="M75 40.5V129L87 135.5V53L75 40.5Z" fill="#F84C1D"/>
<path d="M58.2391 133.827L14 160V144.198L58.2391 120L106.5 144.198V160L58.2391 133.827Z" fill="#F84C1D"/>
<path d="M14 43V145L24.5 139L25.5 54.5L14 43Z" fill="#F84C1D"/>
<path d="M44 43H14L25.5 54.5H34.5L44 43Z" fill="#F84C1D"/>
<path d="M35 133.5V53.5L45 42V127.5L35 133.5Z" fill="#F84C1D"/>
<path d="M44.5 150.5V140L34 145.5V169.5L58.5 154.5L85.5 169.5V147.5L74 141V149.5L58.5 140L44.5 150.5Z" fill="#F84C1D"/>
<path d="M75 41L87 54H96L106.5 41H75Z" fill="#F84C1D"/>
<path d="M95 54.5L106.5 41V145.5L95 139V54.5Z" fill="#F84C1D"/>
</svg>
